<?xml version="1.0" encoding="UTF-8"?> <svg xmlns="http://www.w3.org/2000/svg" id="Layer_1" viewBox="0 0 1824 687.11"><defs><style> .cls-1 { fill: #231f20; } .cls-1, .cls-2, .cls-3, .cls-4, .cls-5, .cls-6 { fill-rule: evenodd; } .cls-2 { fill: #80a33c; } .cls-3 { fill: #c2d72e; } .cls-4 { fill: #e47f25; } .cls-5 { fill: #004b23; } .cls-6 { fill: #766e65; } </style></defs><polygon class="cls-6" points="863.23 686.71 848.29 686.71 848.3 640.43 805.56 640.41 805.53 686.7 790.57 686.69 790.62 587.59 805.58 587.59 805.56 626.36 848.31 626.37 848.31 587.61 863.27 587.61 863.23 686.71"></polygon><polygon class="cls-6" points="1057.48 686.79 1002.79 686.77 1002.84 587.67 1057.52 587.69 1057.51 601.74 1017.79 601.73 1017.78 625.55 1056.35 625.56 1056.35 639.61 1017.77 639.6 1017.75 672.73 1057.49 672.73 1057.48 686.79"></polygon><path class="cls-6" d="M1227.75,615.03l-15.42,33.69h30.11l-14.69-33.69ZM1275.29,686.89h-16.37l-10.39-24.08-42.43-.02-11.04,24.07h-16.1l49.08-105.32,47.26,105.35h-.01Z"></path><polygon class="cls-6" points="1450.21 686.94 1406.1 686.93 1406.14 587.83 1421.1 587.84 1421.08 672.88 1450.21 672.89 1450.21 686.94"></polygon><polygon class="cls-6" points="1611.63 687.01 1596.67 687 1596.7 601.96 1573.92 601.95 1573.92 587.9 1634.38 587.92 1634.38 601.97 1611.65 601.97 1611.63 687.01"></polygon><polygon class="cls-6" points="1820.39 687.11 1805.43 687.09 1805.45 640.81 1762.71 640.8 1762.69 687.07 1747.73 687.07 1747.76 587.97 1762.73 587.97 1762.71 626.74 1805.45 626.76 1805.48 587.99 1820.43 587.99 1820.39 687.11"></polygon><path class="cls-4" d="M770.41,537.05v-8.5c27.4.02,46.92-4.99,58.53-15.02,10.09-8.74,15.15-28.39,15.16-58.97l.07-174.53c.02-29.61-5.03-49.04-15.1-58.26-5.71-5.18-12.98-9.11-21.83-11.78s-21.08-4.01-36.68-4.02v-8.48l51.39.02,151.01.06v8.5c-14.85,0-26.74,1.29-35.69,3.87-9.71,2.76-17.31,6.71-22.84,11.88-10.09,9.38-15.15,28.8-15.15,58.25l-.07,174.52c-.02,29.78,5.01,49.45,15.1,59,10.65,10.03,30.16,15.05,58.51,15.07l-.58,8.5-201.82-.08h-.01Z"></path><path class="cls-4" d="M1092.04,537.19v-8.5c11.03,0,22.94-2.02,35.69-6.05,17.31-5.5,27.6-15.04,30.84-28.63,1.9-7.93,2.86-24.18,2.88-48.78l.06-155.1c.02-35.11-4.45-57.36-13.38-66.76-8.18-8.56-24.92-14.32-50.24-17.25v-8.5h33.97s145.02.07,145.02.07v8.5c-23.61-.02-40.16,4.92-49.68,14.79-8.18,8.42-12.29,31.31-12.3,68.68l-.07,155.59c0,19.26.37,31.39,1.13,36.4,2.08,15.54,7.5,26.23,16.25,32.06,5.9,3.88,13.89,7.45,23.98,10.69,13.13,2.92,25.6,4.38,37.4,4.38v8.5l-201.55-.07h.01ZM1222.85,369.75l82.53-76.67c37.12-32.83,55.69-55.32,55.69-67.45,0-6.32-2.76-11.33-8.27-15.05-6.1-2.92-14.86-4.37-26.27-4.38v-8.5h28.55l122.17.06v8.5h-2.85c-19.22,0-38.03,5-56.39,15.02-18.37,10.03-49.26,34.61-92.67,73.74l-56.07,50.65,111.03,107.97c22.8,22.23,45.4,39.98,67.82,53.28,23.18,13.63,45.12,22.95,65.82,27.99l-1.72,7.04c-10.27,0-22.18-.9-35.69-2.69-6.46-.66-14.26-1.46-23.39-2.43-7.05-.81-14.66-2.03-22.86-3.65-5.13-.81-10.73-1.94-16.84-3.4-19.6-4.7-39.29-17.16-59.07-37.41l-2.85-2.92-128.69-119.71h.01Z"></path><path class="cls-4" d="M1563.07,434.94l10.57-.48c10.06,31.08,25.23,54.76,45.49,71.02,20.27,16.28,44.48,24.4,72.66,24.43,21.12,0,39.06-5.49,53.81-16.48,14.74-10.99,22.13-25.38,22.13-43.18.01-29.28-19.32-53.61-57.97-73.04l-45.38-22.82c-24.33-12.31-42.39-25.91-54.18-40.82-11.39-14.25-17.1-30.2-17.1-47.85.01-28.98,12.86-52.36,38.57-70.16,23.8-16.51,53.2-24.75,88.22-24.74,32.35.01,62.81,7.15,91.34,21.4l-3.44,33-2.58,41.74h-10.57c-7.59-55.02-34.4-82.55-80.46-82.56-21.31,0-38.44,5.57-51.39,16.74-12.96,11.16-19.42,25.4-19.42,42.71-.01,11.33,4.36,22.66,13.12,33.99,8.17,10.67,20.27,20.23,36.25,28.65l65.36,34.49c23.97,12.63,40.7,25.35,50.2,38.13,10.47,13.93,15.69,30.19,15.69,48.8-.01,29.78-14.69,53.96-43.99,72.55-26.65,16.98-58.06,25.46-94.21,25.45-40.16-.01-76.31-8.84-108.47-26.5l-8.83-41.75-5.41-42.72h-.01Z"></path><path class="cls-1" d="M155.78,436c.12-.25.15-.58.15-.58,0,0-.05.2-.15.58"></path><path class="cls-3" d="M291.79,329.3c-.06-.38-.17-.74-.33-1.08,1.33-3.03.14-6.9-3.72-8.48-.25-2.06-1.54-4.03-3.92-5.12.27-1.87-.4-3.82-2.07-5.31-.29-.27-.56-.51-.86-.76-.45-.4-.93-.74-1.46-1.03,3.01-2.43,3.12-6.51.18-9.14l-.86-.76c-1.2-1.07-2.76-1.74-4.4-2.04,1.27-3,.09-6.79-3.69-8.38,0-2.18-1.13-4.36-3.46-5.63.93-1.03,1.54-2.29,1.51-3.54,0-.69-.01-1.42-.25-2.09-.16-.46-.31-.83-.5-1.16.02-.14.03-.25.05-.39.08-1.74-.7-3.48-2.18-4.8-.21-.2-.44-.37-.66-.53-1.43-1.39-3.52-2.35-5.91-2.47-1.05-.05-2.07.08-3.05.33-.92-.35-1.97-.59-3.18-.65-1.52-.07-2.82.15-3.93.55-.9-.09-1.76-.03-2.63.12-.66-1.07-1.66-1.99-3.03-2.64-.35-.6-.81-1.18-1.39-1.68-3.82-3.29-8.69-5.53-14.03-6.72-.13-.03-.25-.05-.37-.08-.51-.38-1.06-.71-1.66-.98-.39-3.24-3.73-5.95-7.85-6.16-1.68-.08-3.27.27-4.61.92-.02-.98-.28-1.94-.76-2.82-.12-.47-.31-.95-.55-1.42-.05-2.22-1.18-4.28-2.99-5.98-2.95-2.78-8.39-2.92-11.62-.58-.68.51-1.24,1.1-1.68,1.75-1.37-1.89-3.87-3.25-6.72-3.39-.59-.02-1.19-.06-1.79-.08-1.31-.07-2.57.14-3.69.53-.27-.02-.54-.02-.81-.05-1.79-.08-3.48.32-4.88,1.05l-.08-.07c-.23-.2-.47-.39-.74-.56-.1-.44-.24-.86-.44-1.28,1.91-3.24.67-7.83-3.95-9.35.16-1.79-.52-3.62-2.12-5.01-.63-.56-1.41-1.04-2.16-1.51-1.52-.95-3.46-1.35-5.31-1.53-2.11-.2-4.38.54-5.9,1.66h0c-.9-.36-1.9-.58-2.94-.65-1.28-2.19-3.97-3.8-7.11-3.97-2.37-.12-4.76-.24-7.14-.35-.74-.03-1.45.01-2.16.14-.74-.21-1.53-.29-2.31-.35-2.65-.21-5.1.78-6.69,2.35-.38.18-.74.4-1.08.66-1.1.8-1.88,1.82-2.29,2.96-1.1-.51-2.33-.81-3.61-.88-.6-.02-1.2,0-1.8.08-.56-.14-1.15-.23-1.76-.27-.68-.03-1.35-.07-2.02-.1-1.44-1.39-3.55-2.33-5.91-2.46-1.78-.09-3.56-.17-5.35-.27-2.84-.15-4.96.7-6.34,2.04-.27.23-.51.46-.74.71-.32.13-.62.29-.92.44h-.21c-4.48-.22-8.37,2.61-8.54,6.21v.6c-.24-.02-.48-.05-.75-.07-4.35-.21-7.02,1.9-7.93,4.48-.96.28-1.87.69-2.65,1.27-.31.23-.62.45-.93.68-1.53,1.12-2.4,2.66-2.57,4.25-.97-.4-2.1-.66-3.4-.71-8.54-.43-10.62,8.08-5.57,11.68-.66,1.73-.5,3.7.47,5.34-2.55,2.22-2.86,5.98-.8,8.58-4.21,1.45-5.53,5.8-3.77,9.03-.12.17-.23.36-.32.54-.93-2.72-3.97-4.93-7.61-5.05-1.73-.06-3.17.18-4.71.8-1.45.56-2.4,1.39-3.33,2.43-.95,1.04-1.27,2.4-1.42,3.67-.05.35-.02.71.03,1.08-.9.44-1.73,1.03-2.43,1.72-.14.12-.28.23-.41.35-.51.4-1.05.74-1.61,1.08-.15.07-.29.16-.44.23-.68.33-1.36.66-2.05.99-2.21,1.05-3.75,2.76-4.21,4.66-4.03-.16-7.57,2.14-8.31,5.26-.27-.1-.53-.21-.8-.3-1.26-.74-2.77-1.22-4.4-1.31-.29,0-.59-.02-.89-.05-4.48-.22-8.37,2.61-8.54,6.21v.17c-.98,1.8-1.03,3.98-.08,5.82-3.25.75-5.73,3.11-5.87,5.97-.01.24-.02.48-.05.71-.03.71.08,1.41.32,2.05.09.59.27,1.14.53,1.69-1.26,1.1-2.05,2.54-2.13,4.12-.05.71-.07,1.44-.1,2.16-.1,2.26,1.26,4.37,3.4,5.67-.08.32-.14.65-.16.98,0,.23-.01.47-.03.71-.03.66.07,1.29.25,1.9-.9.29-1.75.68-2.48,1.21-1.51,1.11-2.67,2.86-2.64,4.56.02.69.02,1.42.25,2.09.53,1.45.96,2.07,2.14,3.26.54.53,1.21.91,1.88,1.3-.23,1.35.02,2.8.77,4.16,1.19,2.13,2.64,4.13,4.58,5.89.14.14.3.27.46.38-.16.46-.25.93-.28,1.43-.02.47-.05.96-.08,1.44-.02.6.05,1.19.22,1.75-.25.6-.41,1.22-.39,1.84.02,1.43.23,2.57,1.11,3.86.14.21.29.39.44.58.23.44.51.85.86,1.26l-.02.18c-.01.24-.02.47-.03.71-.07,1.48.5,2.89,1.49,4.06-3.01,3.32-1.86,9.08,3.79,10.55.68,2.25,2.66,4.2,5.99,4.76,1.08.56,2.42.93,4,1.01,1.03.05,1.96-.03,2.8-.22.12,3.15,2.59,6.25,7.63,6.5.62.03,1.2,0,1.76-.05.05.47.13.95.29,1.41.6,1.87,1.86,3.46,3.44,4.9.36.32.75.61,1.15.86,0,.33.05.67.13.99-.27.8-.31,1.54-.2,2.27-3.05,3.03-2.36,8.43,2.35,10.4.83,2.84,3.94,5.08,7.67,5.27.3.01.59.02.9.05,2.19.1,4.23-.51,5.78-1.6-1.29,3.71,1.05,8.43,7.29,8.73,1.39.07,2.62-.1,3.67-.46.51.2,1.01.36,1.54.47,1.26,1.08,3.05,1.83,5.41,1.96,1.68.07,3.11-.18,4.29-.69-.59.86-.96,1.82-1,2.86-.02.48-.05.96-.08,1.44-.17,3.61,3.41,6.8,7.9,7.03,2.02.1,3.92-.43,5.41-1.36.14.15.29.3.44.43,1.57,1.48,3.86,2.2,6.14,2.2,1.15,1.72,3.26,3.03,6.35,3.23.23.09.47.18.74.29l.32.12.07.03.13.07-.05-.03c1.26.71,2.67,1.18,4.28,1.24,2.18.1,4.31-.48,5.9-1.65.9-.66,1.58-1.5,2.02-2.4,1.96.81,3.92,1.48,6.11,1.79.45,1.36,1.41,2.61,2.84,3.48,4.4,8.25,8.5,16.38,10.37,21.49,5.18,13.97,4.65,20.51,4.65,20.51-.28,32.58-9.76,51.77-9.76,51.77h57.38s-2.88-6.2-7.72-17.08c-4.52-10.16-3.95-15.91-6.43-31.69,0,0-9.87-20.76-.77-35.78,0,0,7.03-16.05,16.2-21.75,1.76-1.11,3.83-2.16,6.05-3.16.22.02.41.07.63.08,4.47.28,8.86,1.11,13.35,1.38.48.03.97.02,1.44-.02,1.14.58,2.46.95,3.86,1.01.59.03,1.2.06,1.79.09.78.03,1.54-.02,2.26-.16,2.25.61,4.77.44,6.84-.54,2.7-.67,4.84-2.46,5.5-4.71,1.18-.25,2.27-.71,3.18-1.42.8-.62,1.57-1.31,2.13-2.09.13-.17.25-.35.38-.52,1.21-1.12,1.94-2.49,2.02-4.03.02-.25,0-.5-.02-.74.6-.06,1.2-.15,1.79-.27.5-.1.98-.21,1.48-.28,1.6-.17,3.08-.67,4.33-1.58l.02-.02c2.12-.61,3.85-1.94,4.73-3.61,2.25-2.46,2.1-6.04-.59-8.43-.51-.46-1.11-.84-1.73-1.16,2.03-.82,3.57-2.29,4.2-4.09,3.38-.36,5.46-2.29,6.2-4.56.27-.15.54-.31.78-.5.74-.53,1.29-1.14,1.69-1.81.12-.1.23-.22.36-.35,1.05-1.04,1.39-2.52,1.54-3.82.12-.98-.17-2.01-.69-2.94.4-.59.69-1.22.84-1.89.97-.61,1.83-1.33,2.42-2.14.88-1.18,1.33-2.4,1.5-3.73.4-.71.66-1.5.75-2.29.93-.17,1.84-.41,2.77-.76,1.2-.45,2.31-1.18,3.3-1.9.15-.1.29-.22.41-.33.81-.1,1.64-.31,2.43-.65,3.7-1.53,5.83-5.83,3.4-8.91-1.56-1.97-3.2-3.48-5.59-4.83-1-.56-2.12-1.03-3.24-1.44.9-.54,1.59-1.23,2.11-2.02.9-.05,1.78-.23,2.61-.53,4.75,1.51,11.14-.2,11.32-5.5.18-5.18-.53-10.37-1.31-15.52M10.59,359.03v-.05.07-.02ZM59.21,277.12v.03-.08.05ZM155.78,436c-.4,1.54-1.54,6.19-2.76,13.48-1.9,11.4-5.18,7.32-5.18,7.32l-7.64-14.11c2.69-1.59,3.69-4.58,2.89-7.2.75-.07,1.48-.23,2.18-.46,1.01.45,2.21.75,3.62.82,2.28.12,4.09-.41,5.43-1.3.82,2.13,1.24,1.91,1.45,1.45.1-.38.15-.58.15-.58,0,0-.05.32-.15.58h0ZM172.68,441.02s.28-2.37-.74-10.22c-.66-5.04-1.94-11.94-2.78-16.27,2.82.14,5.66.28,8.48.41,1.14.06,2.26-.09,3.27-.39,1.31.86,2.95,1.42,4.73,1.51.43.02.86.05,1.29.07.78.55,1.71,1,2.71,1.34,1.3.43,2.57.91,3.85,1.38-.09.35-.16.69-.17,1.05-.05,1.13.29,2.19.86,3.16-14.69,7.84-21.51,17.97-21.51,17.97h0ZM261.92,267.65h.06l.03.02-.09-.02ZM267.47,387.61v.02-.07.05ZM266.92,272.03v.02l.02.02-.02-.05h0Z"></path><polygon class="cls-1" points="467.03 372 467.03 372 467.06 371.99 467.03 372"></polygon><path class="cls-2" d="M489.55,266.29c-.07-.5-.23-.96-.44-1.41,1.72-3.92.18-8.91-4.82-10.96-.32-2.66-1.99-5.21-5.06-6.61.35-2.41-.54-4.93-2.7-6.86-.37-.32-.74-.66-1.11-.98-.58-.51-1.21-.95-1.89-1.31,3.88-3.14,4.03-8.4.23-11.79-.37-.33-.74-.66-1.11-.99-1.56-1.38-3.56-2.27-5.68-2.64,1.64-3.87.12-8.76-4.77-10.82,0-2.8-1.45-5.61-4.46-7.26,1.2-1.33,1.98-2.96,1.95-4.56-.01-.9-.02-1.83-.33-2.69-.22-.59-.41-1.07-.65-1.51.02-.16.05-.33.06-.51.1-2.26-.9-4.51-2.81-6.19-.28-.25-.56-.47-.85-.69-1.84-1.8-4.53-3.03-7.62-3.18-1.36-.07-2.7.09-3.94.44-1.19-.46-2.55-.76-4.12-.84-1.96-.09-3.64.18-5.07.71-1.15-.1-2.27-.03-3.39.16-.84-1.39-2.14-2.58-3.92-3.4-.45-.77-1.05-1.51-1.81-2.18-4.93-4.24-11.23-7.15-18.11-8.68-.16-.05-.32-.06-.48-.09-.66-.51-1.37-.93-2.14-1.28-.51-4.18-4.82-7.68-10.13-7.94-2.17-.1-4.22.35-5.96,1.18-.03-1.24-.36-2.5-.98-3.64-.16-.62-.4-1.23-.71-1.83-.06-2.88-1.51-5.53-3.85-7.72-3.8-3.59-10.84-3.77-15-.75-.89.65-1.6,1.42-2.17,2.26-1.79-2.46-5-4.18-8.68-4.38-.77-.03-1.54-.07-2.31-.12-1.68-.08-3.31.18-4.77.69-.35-.02-.69-.03-1.03-.05-2.31-.1-4.48.41-6.29,1.36l-.1-.1c-.29-.27-.61-.51-.95-.74-.13-.56-.31-1.11-.56-1.65,2.47-4.18.85-10.1-5.11-12.07.21-2.29-.68-4.67-2.74-6.47-.83-.73-1.81-1.35-2.78-1.94-1.96-1.23-4.46-1.75-6.86-1.98-2.72-.25-5.65.7-7.62,2.13h0c-1.16-.45-2.44-.74-3.79-.83-1.65-2.82-5.13-4.91-9.18-5.11-3.07-.16-6.13-.31-9.21-.46-.96-.05-1.88.02-2.78.17-.96-.28-1.98-.38-2.99-.46-3.42-.27-6.57,1.01-8.62,3.03-.48.24-.96.52-1.41.84-1.42,1.03-2.42,2.36-2.96,3.83-1.43-.66-3.02-1.05-4.66-1.13-.78-.05-1.57,0-2.33.1-.74-.17-1.5-.29-2.28-.33-.88-.05-1.74-.08-2.59-.13-1.87-1.8-4.59-3.02-7.63-3.17-2.31-.12-4.6-.23-6.92-.35-3.67-.18-6.4.92-8.18,2.64-.35.29-.66.6-.95.92-.41.17-.81.37-1.19.58h-.28c-5.78-.29-10.8,3.35-11.03,8.01v.78c-.31-.03-.63-.07-.96-.08-5.61-.29-9.06,2.44-10.24,5.79-1.24.35-2.41.89-3.42,1.64-.39.29-.8.58-1.2.88-1.99,1.44-3.09,3.42-3.32,5.49-1.24-.52-2.71-.85-4.39-.93-11.02-.54-13.71,10.43-7.19,15.09-.83,2.24-.63,4.77.62,6.89-3.3,2.88-3.7,7.72-1.03,11.08-5.44,1.88-7.15,7.49-4.88,11.65-.15.22-.3.46-.43.7-1.2-3.52-5.13-6.36-9.82-6.52-2.24-.08-4.09.24-6.09,1.03-1.89.74-3.09,1.8-4.31,3.14-1.22,1.35-1.64,3.11-1.83,4.73-.06.46-.03.93.05,1.41-1.18.58-2.24,1.33-3.14,2.21-.18.15-.36.3-.54.45-.65.51-1.36.96-2.09,1.41-.18.1-.38.2-.56.29-.86.44-1.75.86-2.64,1.28-2.86,1.36-4.82,3.55-5.43,6.02-5.22-.22-9.79,2.77-10.73,6.8-.33-.15-.68-.28-1.03-.39-1.63-.97-3.57-1.59-5.68-1.68-.39-.02-.77-.05-1.15-.06-5.79-.29-10.8,3.37-11.03,8.02v.22c-1.28,2.32-1.33,5.13-.12,7.5-4.2.96-7.39,4.02-7.57,7.72-.01.31-.03.61-.05.92-.05.91.1,1.81.41,2.65.13.75.35,1.48.68,2.18-1.61,1.41-2.65,3.26-2.76,5.31-.05.92-.09,1.86-.13,2.79-.15,2.92,1.63,5.64,4.39,7.32-.1.41-.17.83-.2,1.26-.01.31-.03.62-.05.93-.05.84.08,1.67.33,2.47-1.16.36-2.26.89-3.19,1.57-1.97,1.42-3.46,3.69-3.41,5.89.02.9.02,1.82.35,2.7.68,1.87,1.24,2.69,2.78,4.22.68.68,1.56,1.18,2.42,1.67-.31,1.75.02,3.62,1,5.37,1.52,2.76,3.41,5.33,5.9,7.61.18.17.38.32.59.48-.2.6-.32,1.2-.36,1.84-.03.62-.06,1.23-.09,1.86-.05.78.07,1.53.29,2.27-.35.77-.54,1.57-.52,2.37.05,1.86.31,3.33,1.42,5,.18.27.37.51.58.74.3.56.66,1.1,1.12,1.61l-.02.24c-.02.31-.03.62-.05.93-.09,1.9.65,3.72,1.93,5.23-3.88,4.29-2.4,11.72,4.9,13.61.88,2.89,3.42,5.42,7.73,6.14,1.41.71,3.12,1.2,5.16,1.3,1.33.07,2.54-.03,3.61-.28.14,4.06,3.35,8.07,9.84,8.39.81.05,1.57.02,2.28-.06.07.61.17,1.22.36,1.81.78,2.42,2.4,4.46,4.45,6.33.45.41.96.78,1.48,1.11.01.44.08.86.17,1.29-.33,1.04-.4,1.99-.25,2.94-3.94,3.92-3.05,10.88,3.03,13.42,1.07,3.65,5.08,6.56,9.9,6.8.38.02.77.03,1.15.06,2.82.14,5.46-.67,7.46-2.06-1.66,4.8,1.35,10.87,9.39,11.27,1.81.09,3.39-.14,4.74-.59.66.25,1.33.46,1.99.62,1.64,1.39,3.94,2.36,7,2.51,2.18.1,4.02-.23,5.53-.89-.76,1.11-1.23,2.35-1.3,3.69-.03.61-.07,1.23-.09,1.86-.23,4.67,4.4,8.78,10.19,9.08,2.61.13,5.06-.55,7-1.75.18.18.37.37.55.54,2.03,1.91,4.99,2.85,7.93,2.86,1.5,2.21,4.22,3.9,8.21,4.16.3.12.61.23.95.37.14.05.29.09.43.14l.08.05.16.1-.06-.03c1.63.92,3.45,1.51,5.52,1.6,2.8.14,5.57-.63,7.63-2.13,1.18-.85,2.04-1.93,2.61-3.1,2.52,1.05,5.07,1.9,7.87,2.31.59,1.75,1.81,3.35,3.68,4.48,5.68,10.66,10.94,21.15,13.38,27.74,6.69,18.03,5.98,26.48,5.98,26.48-.35,42.05-12.6,69.59-12.6,69.59h74.09s-3.73-10.77-9.97-24.81c-5.83-13.12-5.11-20.54-8.3-40.91,0,0-12.75-26.81-.99-46.2,0,0,9.08-20.71,20.9-28.08,2.27-1.42,4.91-2.77,7.76-4.07.29.05.58.08.86.09,5.78.35,11.46,1.43,17.23,1.79.63.05,1.26.02,1.87-.03,1.48.74,3.18,1.22,5,1.3.77.05,1.53.07,2.29.12,1.01.05,1.99-.02,2.94-.2,2.9.78,6.16.58,8.82-.69,3.49-.86,6.26-3.17,7.11-6.1,1.51-.32,2.93-.92,4.1-1.83,1.03-.78,2.02-1.69,2.76-2.69.17-.22.32-.45.5-.67,1.54-1.45,2.5-3.22,2.61-5.21.01-.31,0-.63-.02-.95.78-.07,1.54-.18,2.31-.35.62-.14,1.26-.27,1.9-.36,2.07-.23,3.98-.86,5.59-2.04l.03-.02c2.73-.8,4.97-2.5,6.1-4.67,2.9-3.18,2.71-7.8-.75-10.89-.66-.59-1.42-1.08-2.24-1.5,2.61-1.05,4.61-2.96,5.41-5.29,4.37-.46,7.05-2.95,8.01-5.9.36-.2.7-.41,1.01-.65.96-.69,1.66-1.48,2.19-2.33.15-.14.3-.29.47-.45,1.35-1.33,1.79-3.25,1.99-4.92.15-1.26-.21-2.58-.89-3.79.51-.75.88-1.57,1.08-2.44,1.26-.78,2.36-1.72,3.14-2.76,1.13-1.53,1.72-3.09,1.93-4.83.53-.92.85-1.93.98-2.96,1.2-.22,2.36-.54,3.57-.99,1.56-.59,2.97-1.53,4.25-2.46.2-.14.37-.29.55-.44,1.04-.14,2.1-.4,3.14-.83,4.77-1.97,7.54-7.54,4.38-11.52-2.01-2.54-4.13-4.5-7.22-6.24-1.29-.74-2.72-1.33-4.18-1.84,1.15-.7,2.06-1.6,2.72-2.62,1.15-.06,2.29-.3,3.37-.68,6.13,1.94,14.37-.24,14.62-7.08.23-6.69-.68-13.39-1.69-20.05M126.5,304.69v-.05.08-.03ZM189.26,198.93l-.02.03.03-.09-.02.06h.01ZM313.95,404.07c-.52,1.99-1.98,7.99-3.55,17.4-2.46,14.73-6.67,9.46-6.67,9.46l-9.87-18.21c3.46-2.05,4.75-5.93,3.72-9.3.97-.09,1.91-.29,2.81-.59,1.3.59,2.86.97,4.68,1.06,2.94.14,5.28-.54,7.02-1.69,1.06,2.76,1.6,2.47,1.87,1.88.13-.5.2-.75.2-.75,0,0-.06.41-.2.75h-.01ZM335.77,410.53s.35-3.07-.96-13.2c-.84-6.5-2.5-15.42-3.59-21,3.65.17,7.31.36,10.96.54,1.48.07,2.9-.12,4.22-.51,1.69,1.11,3.8,1.84,6.1,1.95.55.02,1.11.06,1.66.08,1.01.71,2.2,1.3,3.5,1.73,1.67.54,3.31,1.16,4.96,1.78-.12.44-.2.9-.23,1.36-.07,1.46.32,2.85,1.08,4.09-18.94,10.12-27.72,23.18-27.72,23.18h.01ZM450.99,186.71h.07l.05.02-.12-.02ZM458.15,341.58l-.02.03.02-.08v.05ZM457.44,192.36l.02.03v.03l-.02-.07Z"></path><path class="cls-5" d="M747.64,192.07c-.09-.63-.29-1.23-.54-1.81,2.27-5.01.38-11.47-6.03-14.19-.38-3.44-2.48-6.76-6.41-8.6.47-3.09-.61-6.36-3.35-8.88-.47-.43-.93-.86-1.42-1.29-.73-.66-1.54-1.23-2.41-1.72,5.05-3.99,5.33-10.77.48-15.18-.47-.44-.93-.86-1.41-1.29-1.98-1.81-4.55-2.96-7.27-3.49,2.17-4.96.29-11.29-5.96-14.01.05-3.61-1.79-7.26-5.61-9.42,1.56-1.69,2.61-3.78,2.57-5.86,0-1.15,0-2.35-.39-3.47-.25-.76-.52-1.38-.8-1.94.02-.22.07-.44.07-.66.18-2.9-1.1-5.82-3.52-8.03-.35-.31-.71-.61-1.1-.89-2.34-2.35-5.79-3.98-9.76-4.22-1.76-.1-3.48.08-5.08.51-1.52-.61-3.27-1.01-5.29-1.14-2.51-.15-4.69.17-6.54.84-1.5-.16-2.94-.08-4.37.14-1.06-1.8-2.73-3.37-4.99-4.44-.56-1.01-1.33-1.97-2.29-2.82-6.28-5.54-14.34-9.38-23.2-11.47-.21-.05-.41-.08-.61-.13-.84-.66-1.76-1.22-2.73-1.68-.58-5.39-6.1-9.97-12.93-10.4-2.79-.17-5.44.37-7.7,1.43-.01-1.63-.41-3.24-1.2-4.71-.2-.8-.51-1.58-.9-2.37-.02-3.7-1.87-7.14-4.84-10.01-4.85-4.67-13.9-5.04-19.31-1.2-1.15.81-2.1,1.79-2.82,2.86-2.27-3.18-6.37-5.46-11.11-5.76-.98-.07-1.97-.13-2.96-.18-2.18-.14-4.27.17-6.16.81-.44-.02-.89-.05-1.33-.08-2.97-.18-5.79.45-8.14,1.65l-.13-.13c-.37-.35-.78-.66-1.21-.97-.14-.73-.37-1.44-.68-2.13,3.24-5.35,1.26-12.99-6.39-15.63.31-2.95-.8-6.02-3.42-8.39-1.06-.95-2.32-1.76-3.55-2.55-2.51-1.61-5.72-2.33-8.8-2.66-3.5-.37-7.3.82-9.86,2.63h0c-1.49-.6-3.14-.99-4.86-1.13-2.07-3.68-6.51-6.41-11.72-6.73-3.95-.25-7.91-.5-11.86-.74-1.22-.07-2.42,0-3.57.17-1.22-.37-2.55-.52-3.84-.63-4.4-.41-8.47,1.2-11.16,3.77-.63.3-1.23.65-1.81,1.05-1.84,1.3-3.17,3.01-3.88,4.89-1.82-.86-3.86-1.39-5.97-1.53-1.01-.07-2.01-.02-3,.09-.95-.23-1.93-.4-2.94-.46-1.11-.07-2.24-.14-3.34-.21-2.37-2.34-5.86-3.97-9.76-4.21-2.96-.18-5.94-.37-8.9-.55-4.71-.29-8.27,1.08-10.59,3.26-.45.37-.85.76-1.23,1.18-.53.21-1.05.46-1.54.73l-.35-.02c-7.44-.46-13.96,4.16-14.34,10.16-.02.33-.02.67,0,1-.41-.05-.81-.1-1.24-.13-7.23-.45-11.71,3-13.28,7.29-1.6.44-3.11,1.11-4.44,2.05-.52.37-1.04.74-1.56,1.11-2.59,1.83-4.05,4.37-4.37,7.01-1.6-.68-3.48-1.14-5.65-1.27-14.18-.88-17.82,13.22-9.5,19.32-1.11,2.86-.9,6.13.68,8.88-4.3,3.64-4.89,9.89-1.5,14.25-7.04,2.33-9.33,9.53-6.47,14.94-.2.29-.39.59-.56.9-1.49-4.55-6.5-8.29-12.53-8.56-2.88-.14-5.29.25-7.86,1.22-2.44.93-4.01,2.27-5.6,3.99-1.59,1.71-2.16,3.97-2.43,6.05-.07.6-.05,1.2.03,1.81-1.51.73-2.89,1.67-4.07,2.81-.23.18-.47.38-.71.56-.83.65-1.78,1.22-2.71,1.78-.24.13-.5.25-.74.37-1.13.56-2.28,1.08-3.42,1.6-3.71,1.71-6.27,4.51-7.08,7.67-6.72-.37-12.65,3.4-13.94,8.58-.43-.2-.86-.37-1.31-.52-2.07-1.27-4.59-2.11-7.3-2.27-.5-.03-.99-.06-1.48-.09-7.45-.46-13.96,4.16-14.34,10.16v.28c-1.68,2.96-1.8,6.58-.25,9.67-5.43,1.18-9.6,5.06-9.89,9.81-.02.4-.05.8-.08,1.2-.07,1.18.1,2.33.47,3.42.15.96.44,1.9.85,2.81-2.1,1.79-3.46,4.16-3.63,6.81-.08,1.19-.15,2.39-.22,3.57-.24,3.77,1.99,7.29,5.53,9.5-.14.54-.24,1.07-.28,1.63-.02.4-.05.8-.08,1.2-.07,1.08.08,2.16.39,3.18-1.51.45-2.92,1.11-4.14,1.97-2.55,1.81-4.51,4.7-4.48,7.54.02,1.15,0,2.35.39,3.47.85,2.42,1.54,3.48,3.52,5.46.86.88,1.98,1.53,3.1,2.2-.41,2.25-.03,4.67,1.2,6.94,1.93,3.57,4.31,6.92,7.48,9.89.23.23.5.44.75.63-.27.76-.44,1.54-.5,2.36-.05.8-.1,1.59-.15,2.39-.06,1,.07,1.97.32,2.92-.44.99-.7,2.03-.69,3.07.01,2.39.35,4.29,1.75,6.46.22.35.47.67.71.97.38.73.84,1.43,1.42,2.1l-.05.31c-.02.4-.05.8-.08,1.2-.15,2.46.76,4.82,2.4,6.78-5.07,5.45-3.27,15.05,6.07,17.61,1.07,3.75,4.33,7.03,9.87,8.05,1.8.96,4,1.59,6.64,1.76,1.71.1,3.25,0,4.66-.3.1,5.22,4.18,10.44,12.53,10.96,1.04.07,2.02.05,2.94-.05.08.78.21,1.57.45,2.33.96,3.12,3.02,5.79,5.61,8.23.59.54,1.22,1.03,1.9,1.44.01.56.07,1.11.2,1.66-.45,1.33-.55,2.56-.38,3.78-5.14,4.97-4.1,13.96,3.7,17.34,1.33,4.73,6.44,8.53,12.63,8.91.51.03,1,.06,1.49.09,3.64.22,7.05-.77,9.64-2.55-2.21,6.16,1.57,14.03,11.93,14.67,2.33.14,4.36-.13,6.12-.69.84.32,1.68.61,2.56.83,2.07,1.82,5.05,3.11,8.97,3.35,2.79.16,5.18-.24,7.14-1.06-.99,1.41-1.61,3.01-1.73,4.74-.05.8-.1,1.59-.15,2.4-.37,5.99,5.53,11.39,12.97,11.85,3.37.21,6.54-.62,9.04-2.14.23.24.47.48.71.71,2.58,2.49,6.37,3.75,10.17,3.79,1.88,2.88,5.36,5.11,10.5,5.51.38.16.78.31,1.22.48.17.08.36.14.54.2l.1.05.22.14-.07-.05c2.07,1.21,4.42,1.99,7.08,2.16,3.61.22,7.18-.73,9.86-2.63,1.51-1.07,2.65-2.44,3.41-3.94,3.23,1.39,6.49,2.54,10.11,3.09.71,2.27,2.28,4.35,4.65,5.83,7.16,13.83,13.76,27.42,16.8,35.94,8.32,23.32,7.3,34.19,7.3,34.19-1.13,54.16-17.31,89.15-17.31,89.15h95.46s-4.7-12.45-12.52-30.63c-7.3-17-6.24-26.55-10.03-52.82,0,0-15.98-34.73-.54-59.53,0,0,12.03-26.54,27.38-35.84,2.94-1.78,6.36-3.48,10.06-5.1.37.05.74.1,1.12.13,7.45.55,14.73,2.03,22.17,2.57.82.06,1.61.05,2.41-.02,1.89.99,4.07,1.63,6.41,1.76.99.06,1.97.12,2.96.18,1.3.07,2.57,0,3.78-.21,3.73,1.06,7.93.83,11.38-.75,4.52-1.06,8.12-3.99,9.26-7.73,1.94-.39,3.77-1.15,5.3-2.29,1.35-1,2.63-2.16,3.6-3.41.22-.29.43-.58.65-.86,2.03-1.83,3.29-4.1,3.44-6.66.02-.41,0-.82-.01-1.22.99-.08,1.98-.21,2.96-.41.81-.16,1.63-.31,2.46-.43,2.67-.25,5.13-1.05,7.24-2.54l.05-.03c3.55-.98,6.44-3.14,7.94-5.91,3.79-4.05,3.61-10.01-.8-14.03-.84-.78-1.81-1.43-2.85-1.97,3.38-1.31,5.99-3.75,7.05-6.72,5.63-.53,9.13-3.7,10.41-7.47.46-.25.9-.51,1.33-.81,1.23-.86,2.16-1.87,2.86-2.96.2-.17.39-.36.6-.56,1.75-1.69,2.36-4.16,2.65-6.29.22-1.63-.23-3.33-1.07-4.91.67-.96,1.15-2.02,1.43-3.14,1.63-.98,3.07-2.18,4.07-3.5,1.48-1.94,2.26-3.94,2.56-6.18.69-1.19,1.13-2.48,1.3-3.79,1.54-.27,3.07-.65,4.61-1.21,2.02-.73,3.85-1.91,5.52-3.09.25-.17.47-.37.71-.56,1.35-.15,2.71-.47,4.06-1.01,6.18-2.47,9.82-9.58,5.83-14.76-2.55-3.31-5.26-5.86-9.2-8.15-1.65-.96-3.48-1.74-5.36-2.46,1.5-.88,2.69-2.02,3.55-3.32,1.49-.06,2.96-.35,4.35-.83,7.88,2.61,18.51-.09,18.93-8.9.41-8.61-.66-17.26-1.86-25.84M279.43,235.66v-.06l.02.1-.02-.05ZM361.96,100.46l-.02.05.05-.13-.02.07h0ZM519.25,366.69c-.7,2.57-2.67,10.26-4.85,22.34-3.4,18.92-8.75,12.08-8.75,12.08l-12.42-23.62c4.5-2.58,6.21-7.55,4.95-11.93,1.26-.1,2.48-.35,3.63-.71,1.68.77,3.67,1.29,6.01,1.44,3.78.23,6.8-.59,9.06-2.05,1.33,3.56,2.03,3.2,2.36,2.46.17-.63.28-.98.28-.98,0,0-.08.55-.28.98h.01ZM547.26,375.35s.5-3.94-1.03-17.03c-.97-8.37-2.96-19.9-4.28-27.11,4.7.29,9.39.59,14.11.88,1.9.12,3.75-.1,5.44-.59,2.18,1.45,4.88,2.42,7.82,2.61.71.05,1.43.08,2.14.14,1.3.93,2.81,1.71,4.48,2.28,2.16.74,4.25,1.54,6.36,2.37-.16.56-.27,1.14-.31,1.74-.12,1.88.37,3.68,1.33,5.28-24.55,12.75-36.08,29.42-36.08,29.42h.01ZM699.25,88.94l.09.02.06.02-.15-.05h0ZM705.98,288.53v.03l.02-.1-.02.07ZM707.47,96.32l.02.05v.05l-.02-.08h0Z"></path></svg> 